<mxfile host="Electron" modified="2024-05-05T14:49:03.378Z" agent="Mozilla/5.0 (Macintosh; Intel Mac OS X 10_15_7) AppleWebKit/537.36 (KHTML, like Gecko) draw.io/22.1.16 Chrome/120.0.6099.109 Electron/28.1.0 Safari/537.36" etag="oMR3uNhVRvAaxUZvIGU-" version="22.1.16" type="device">
  <diagram name="Page-1" id="Woe_gD0FxCI9WXKO0gsB">
    <mxGraphModel dx="897" dy="718" grid="1" gridSize="10" guides="1" tooltips="1" connect="1" arrows="1" fold="1" page="1" pageScale="1" pageWidth="827" pageHeight="1169" math="1" shadow="0">
      <root>
        <mxCell id="0" />
        <mxCell id="1" parent="0" />
        <mxCell id="NstZLo--2fRkbFxro2_--1" value="\( \begin{pmatrix}&lt;br style=&quot;border-color: var(--border-color); font-size: 20px; font-weight: 700;&quot;&gt;-\frac{a}{b} &amp;amp; 0 \\&lt;br style=&quot;border-color: var(--border-color); font-size: 20px; font-weight: 700;&quot;&gt;&lt;span style=&quot;border-color: var(--border-color); font-size: 20px; font-weight: 700;&quot;&gt;1 &amp;amp; 0&lt;/span&gt;&lt;br style=&quot;border-color: var(--border-color); font-size: 20px; font-weight: 700;&quot;&gt;&lt;span style=&quot;border-color: var(--border-color); font-size: 20px; font-weight: 700;&quot;&gt;\end{pmatrix}\)&lt;/span&gt;" style="text;html=1;strokeColor=none;fillColor=none;align=center;verticalAlign=middle;whiteSpace=wrap;rounded=0;" vertex="1" parent="1">
          <mxGeometry x="250" y="210" width="60" height="30" as="geometry" />
        </mxCell>
        <mxCell id="NstZLo--2fRkbFxro2_--7" value="&lt;font style=&quot;font-size: 15px;&quot;&gt;\begin{pmatrix}&lt;br&gt;v \\&lt;br&gt;x&lt;br&gt;\end{pmatrix}&lt;/font&gt;" style="text;html=1;align=center;verticalAlign=middle;resizable=0;points=[];autosize=1;strokeColor=none;fillColor=none;" vertex="1" parent="1">
          <mxGeometry x="290" y="338" width="120" height="90" as="geometry" />
        </mxCell>
      </root>
    </mxGraphModel>
  </diagram>
</mxfile>
